<?xml version="1.0" standalone="no"?>
<!DOCTYPE svg PUBLIC "-//W3C//DTD SVG 20010904//EN"
 "http://www.w3.org/TR/2001/REC-SVG-20010904/DTD/svg10.dtd">
<svg version="1.0" xmlns="http://www.w3.org/2000/svg"
 width="648.000000pt" height="648.000000pt" viewBox="0 0 648.000000 648.000000"
 preserveAspectRatio="xMidYMid meet">
<metadata>
Created by potrace 1.14, written by Peter Selinger 2001-2017
</metadata>
<g transform="translate(0.000000,648.000000) scale(0.100000,-0.100000)"
fill="#000000" stroke="none">
<path d="M5190 6239 c-64 -22 -130 -72 -130 -99 0 -19 89 -270 109 -307 16
-32 47 -46 69 -34 16 10 15 11 -3 12 -11 1 -25 2 -32 2 -6 0 -14 6 -17 14 -3
8 -1 11 4 8 14 -9 13 -2 -17 70 -16 40 -33 65 -42 66 -10 0 -11 3 -4 5 14 6
-3 54 -19 54 -5 0 -6 4 -3 10 3 5 -1 25 -10 44 -28 58 -18 77 59 116 64 33 75
35 160 34 122 0 273 -47 289 -88 13 -32 -76 -280 -107 -302 -11 -8 -47 -15
-81 -16 -53 -1 -55 -2 -15 -5 33 -3 40 -7 30 -14 -14 -10 26 -6 71 7 22 6 60
93 99 227 36 121 36 120 -35 161 -94 56 -270 72 -375 35z m-10 -377 c0 -21
-17 -5 -23 20 -2 13 -8 32 -11 43 -4 11 2 4 13 -15 11 -19 20 -41 21 -48z"/>
<path d="M1440 6044 c-60 -8 -170 -32 -290 -65 -109 -29 -126 -31 -310 -32
-166 -2 -195 -4 -195 -17 0 -8 18 -43 40 -78 64 -102 127 -192 287 -417 24
-33 78 -97 122 -143 43 -45 77 -84 75 -86 -2 -2 -35 -16 -74 -31 -171 -67
-363 -185 -509 -313 -236 -208 -474 -481 -540 -622 -27 -59 -31 -62 -37 -40
-9 32 -11 -90 -3 -142 8 -48 24 -49 24 -3 0 45 65 196 120 277 152 224 409
475 661 646 93 63 284 156 300 146 8 -4 9 -3 5 4 -4 7 -1 12 6 13 7 0 22 3 33
5 47 12 62 10 95 -9 19 -12 38 -25 42 -30 3 -6 -19 -29 -50 -52 -73 -54 -191
-176 -231 -240 -31 -49 -41 -105 -19 -105 6 0 33 -14 59 -30 94 -61 110 -151
48 -274 -57 -112 -127 -166 -217 -166 -63 0 -90 10 -136 50 -20 18 -40 28 -47
24 -8 -4 -9 -3 -5 5 4 6 8 41 9 76 l2 64 -24 -47 c-13 -26 -27 -49 -31 -52
-12 -9 -19 -39 -10 -45 5 -3 6 -13 3 -22 -6 -15 -7 -15 -13 2 -5 15 -14 7 -43
-41 -20 -32 -37 -62 -37 -67 0 -5 -11 -23 -24 -40 -29 -40 -76 -131 -76 -150
0 -8 -6 -20 -14 -26 -8 -7 -18 -26 -21 -42 -4 -16 -10 -29 -14 -29 -3 0 -13
-20 -20 -45 -7 -25 -17 -45 -21 -45 -17 0 -19 34 -5 77 9 25 13 54 10 64 -4
11 -2 19 4 19 6 0 15 19 21 43 14 55 59 196 70 222 5 11 12 40 16 65 3 25 11
51 16 58 6 6 7 12 3 12 -12 0 -179 -176 -224 -235 -21 -27 -51 -63 -65 -80
-15 -16 -34 -43 -43 -59 -8 -16 -19 -34 -24 -40 -24 -27 -99 -164 -104 -188
-7 -29 -20 -36 -28 -15 -3 6 -6 -835 -6 -1870 l-1 -1883 284 0 284 0 6 30 c3
17 10 30 16 30 6 0 13 -13 16 -30 l6 -30 277 0 277 0 12 92 c7 51 12 120 12
153 l0 60 78 -76 c42 -41 95 -90 116 -109 36 -30 40 -36 37 -76 l-3 -44 1425
0 c1352 0 1425 1 1421 18 -3 12 18 34 68 72 96 74 239 210 232 221 -3 5 -3 9
-1 9 3 0 24 -31 47 -69 45 -76 127 -174 171 -207 22 -16 26 -23 17 -32 -17
-17 4 -15 28 3 17 13 17 14 2 15 -9 0 -47 30 -84 67 -66 66 -105 120 -159 220
l-28 52 30 41 c17 22 53 65 81 94 27 30 49 56 49 58 -10 19 52 -68 106 -152
120 -185 176 -226 339 -244 l97 -11 -54 -65 c-55 -64 -61 -80 -35 -88 7 -3 10
0 6 7 -4 6 12 31 39 58 26 25 50 56 55 67 5 13 27 28 58 39 66 24 221 116 284
168 27 23 61 60 77 83 l28 41 -3 150 c-1 83 -5 162 -7 178 -9 46 9 30 27 -25
27 -80 33 -206 12 -246 -9 -18 -14 -32 -11 -32 4 0 15 21 27 46 16 38 19 57
13 102 -25 202 -140 385 -276 442 l-57 23 42 52 c118 148 213 280 225 315 25
67 -20 134 -88 132 -37 -1 -116 -42 -171 -89 -42 -36 -183 -197 -264 -301 -49
-63 -60 -70 -71 -52 -16 25 -89 52 -130 48 l-42 -5 18 36 c26 54 67 233 80
347 7 67 9 252 6 550 -5 464 -8 504 -58 799 -102 610 -327 1159 -628 1535
-179 224 -517 532 -702 640 l-57 33 57 37 c138 90 252 256 336 490 49 136 55
166 43 201 -12 35 -29 36 -118 8 -102 -33 -246 -35 -510 -9 -233 23 -294 22
-404 -6 -111 -29 -188 -80 -258 -174 l-26 -35 -48 23 c-65 32 -175 40 -238 19
-26 -9 -67 -30 -93 -47 -25 -17 -46 -30 -47 -28 -2 2 -14 28 -29 59 -30 62
-126 167 -200 217 -80 55 -190 102 -288 123 -93 19 -272 31 -339 23z m360 -70
c85 -16 157 -43 115 -43 -11 0 -106 -3 -212 -6 -181 -4 -198 -7 -285 -36 -85
-28 -109 -31 -308 -41 -261 -12 -410 -4 -410 22 0 13 60 21 191 25 119 4 176
14 429 72 157 36 318 38 480 7z m2200 -123 c0 -5 -7 -16 -15 -24 -8 -8 -11
-17 -8 -21 4 -3 0 -6 -8 -6 -21 0 -99 -56 -91 -65 4 -5 2 -5 -5 -2 -6 4 -17 1
-25 -6 -15 -14 -204 -107 -218 -107 -6 0 -10 -4 -10 -10 0 -5 -10 -10 -23 -10
-27 0 -146 -38 -164 -53 -23 -17 -15 37 8 62 12 12 48 34 80 48 32 14 59 29
59 33 0 4 -26 12 -57 18 -32 6 -105 20 -163 31 -110 22 -139 23 -308 18 -57
-2 -105 0 -108 4 -2 5 4 17 16 29 11 11 17 20 13 21 -5 1 19 7 52 15 86 19
225 17 436 -6 216 -24 336 -20 444 16 78 26 95 28 95 15z m-924 -119 c-16 -2
-32 0 -37 5 -5 5 7 7 29 4 34 -5 35 -6 8 -9z m149 -490 c-3 -3 -11 0 -18 7 -9
10 -8 11 6 5 10 -3 15 -9 12 -12z m76 -14 c22 -6 39 -15 39 -21 0 -5 -6 -7
-14 -4 -8 3 -17 -1 -20 -9 -6 -16 19 -20 29 -4 3 6 17 10 30 10 33 0 76 -21
68 -33 -3 -6 -1 -7 5 -3 16 10 167 -64 264 -131 253 -172 416 -329 677 -653
52 -65 127 -175 173 -255 48 -82 127 -242 132 -266 2 -8 15 -41 31 -74 15 -33
28 -70 29 -82 0 -12 3 -19 5 -17 6 6 71 -185 71 -207 0 -45 -29 -19 -85 75
-80 135 -301 476 -347 537 -22 28 -87 108 -143 174 -86 102 -108 133 -147 207
-30 59 -63 102 -112 150 -38 38 -74 68 -80 68 -6 0 5 -13 24 -28 61 -47 119
-115 146 -170 42 -83 25 -161 -47 -215 -72 -53 -177 -20 -278 89 -104 111
-134 201 -92 282 43 84 104 107 181 68 27 -14 50 -22 50 -17 0 4 -11 13 -23
18 -13 6 -48 34 -78 61 -66 61 -165 142 -174 142 -3 0 -11 5 -18 10 -20 17
-107 73 -201 131 -96 58 -147 100 -128 107 19 6 14 60 -5 65 -10 3 -14 5 -9 6
5 0 26 -4 47 -11z m-1981 -765 c41 -28 86 -98 69 -108 -5 -4 -9 -16 -9 -28 -1
-68 -77 -160 -158 -189 -48 -17 -109 -25 -68 -9 17 6 15 10 -19 31 -36 23 -65
70 -65 108 0 32 52 120 99 167 38 39 50 45 85 45 23 0 53 -8 66 -17z m2200
-13 c0 -5 -2 -10 -4 -10 -3 0 -8 5 -11 10 -3 6 -1 10 4 10 6 0 11 -4 11 -10z
m-635 -64 c50 -51 72 -110 82 -223 8 -93 -8 -151 -55 -198 -77 -77 -168 -67
-243 27 -21 27 -39 54 -39 59 0 6 -6 7 -12 3 -10 -5 -10 -4 -1 6 7 7 8 22 4
39 -13 45 7 191 34 247 29 59 67 82 138 83 43 1 51 -3 92 -43z m615 33 c0 -6
8 -9 18 -7 10 2 24 -7 35 -22 27 -38 87 -158 87 -174 0 -19 -76 -48 -103 -40
-58 18 -127 103 -127 156 0 30 35 78 56 78 8 0 12 5 9 10 -3 6 1 10 9 10 9 0
16 -5 16 -11z m-1883 -183 c0 -8 -11 -19 -25 -26 -31 -13 -68 -60 -64 -78 2
-8 0 -12 -5 -9 -4 3 -14 -2 -22 -10 -12 -13 -11 -14 5 -11 11 2 23 12 28 23 9
21 83 81 113 92 10 4 23 13 29 21 8 12 16 8 45 -22 19 -20 35 -47 36 -59 10
-91 24 -194 28 -204 2 -7 13 -13 24 -13 11 0 24 -6 28 -14 10 -16 46 -36 65
-36 9 1 7 5 -5 14 -16 13 -16 14 9 19 16 3 27 0 31 -9 3 -8 10 -14 17 -14 19
0 109 -74 117 -97 5 -14 4 -23 -1 -23 -6 0 -10 6 -10 14 0 7 -7 19 -15 26 -19
16 -19 6 1 -25 20 -30 11 -61 -27 -98 -16 -15 -31 -27 -34 -27 -3 0 -9 0 -15
0 -5 0 -9 -10 -7 -22 2 -19 -3 -23 -28 -25 -16 0 -36 -2 -43 -2 -7 -1 -10 -5
-7 -11 3 -5 0 -7 -8 -5 -32 13 -49 -31 -62 -157 -11 -115 -13 -125 -42 -156
-28 -31 -33 -33 -54 -21 -13 7 -33 14 -44 15 -11 2 -14 0 -7 -2 6 -3 10 -10 6
-15 -3 -5 5 -9 18 -9 13 0 30 -5 38 -10 11 -7 5 -8 -19 -3 -37 7 -117 48 -127
65 -4 6 -3 8 2 5 6 -3 16 3 23 15 7 11 8 17 2 13 -6 -3 -11 -1 -11 4 0 6 -7
11 -15 11 -8 0 -15 4 -15 10 0 12 -67 55 -99 63 -31 8 -70 -11 -50 -24 11 -7
10 -11 -6 -23 -27 -21 -217 -23 -234 -2 -19 22 3 137 37 200 26 47 28 56 16
67 -22 18 -17 28 13 26 41 -3 39 22 -7 73 -22 25 -40 52 -40 60 -1 22 -23 48
-51 59 -17 6 -29 22 -37 47 -6 21 -9 40 -6 43 3 3 7 -5 11 -17 10 -38 24 -24
17 18 -7 41 11 104 27 95 4 -3 16 6 25 20 9 14 26 25 38 25 12 0 27 5 32 10 8
8 20 7 40 -2 l28 -13 -37 -5 c-21 -3 -36 -9 -35 -15 2 -5 7 -8 13 -6 5 1 40 3
76 2 59 -1 69 2 90 24 13 13 28 25 33 25 5 0 35 26 66 59 32 32 64 61 72 64 7
3 13 6 14 6 0 1 1 -5 1 -13z m862 -31 c41 -47 48 -78 26 -119 -39 -71 -120
-87 -179 -36 -47 42 -64 92 -41 126 24 37 75 64 121 64 35 0 47 -6 73 -35z
m-1394 -35 c-3 -5 -10 -10 -16 -10 -5 0 -9 5 -9 10 0 6 7 10 16 10 8 0 12 -4
9 -10z m28 -30 c-6 -21 -20 -25 -42 -11 -11 7 -9 10 8 16 11 3 21 11 21 16 0
6 4 8 9 5 5 -3 7 -15 4 -26z m207 0 c0 -5 -15 -10 -32 -9 -31 1 -32 1 -8 9 35
11 40 11 40 0z m-204 -56 c-4 -9 -2 -22 3 -28 7 -8 -1 -11 -25 -11 -19 0 -34
1 -34 3 0 7 46 51 54 51 4 1 5 -6 2 -15z m-326 -223 c0 -6 -4 -13 -10 -16 -5
-3 -10 1 -10 9 0 9 5 16 10 16 6 0 10 -4 10 -9z m31 -136 c-10 -20 -25 -105
-36 -200 -9 -79 -35 -243 -51 -330 -47 -250 -87 -1123 -65 -1432 16 -226 26
-295 55 -399 13 -46 20 -84 15 -84 -16 0 -81 143 -121 265 -21 66 -53 188 -71
270 -30 142 -32 161 -31 355 2 406 63 847 185 1332 47 186 83 299 107 336 l17
26 3 -59 c2 -33 -1 -68 -7 -80z m-61 112 c0 -2 -10 -12 -21 -23 -22 -19 -22
-19 -10 4 10 18 31 31 31 19z m454 -88 c3 1 7 -2 8 -6 0 -5 8 -13 17 -20 9 -7
12 -13 7 -13 -13 0 -56 41 -56 54 0 6 4 5 9 -2 4 -8 11 -13 15 -13z m2787
-294 c147 -180 242 -333 329 -535 18 -41 66 -146 108 -233 95 -201 104 -254
79 -458 -14 -110 -16 -184 -10 -415 8 -358 -3 -424 -98 -564 -47 -69 -78 -98
-214 -201 -231 -173 -534 -275 -915 -309 -236 -21 -732 17 -905 69 -16 5 -88
26 -160 45 -163 45 -344 107 -388 133 -28 17 -36 31 -55 94 -32 113 -53 265
-62 469 -5 101 -14 248 -21 325 -7 83 -9 208 -6 306 6 153 9 172 34 230 l28
64 11 -50 c12 -58 22 -60 101 -23 l48 23 12 78 c20 131 74 283 124 345 l21 27
-7 -145 c-3 -80 -11 -174 -16 -209 -9 -55 -8 -66 8 -83 34 -37 47 -39 124 -13
97 33 106 31 35 -8 -109 -59 -169 -131 -295 -357 -69 -124 -69 -125 -45 -132
13 -3 35 -16 50 -27 15 -12 30 -21 35 -21 4 0 32 51 63 113 30 61 66 126 80
142 l26 30 -17 -45 c-24 -65 -24 -284 0 -362 26 -84 82 -150 164 -190 61 -30
76 -33 153 -33 112 0 174 22 244 85 67 63 103 140 124 271 13 80 14 112 5 164
-15 89 -51 161 -109 219 -48 47 -48 48 -19 42 76 -18 141 -58 207 -129 75 -80
87 -74 43 21 -37 79 -111 167 -187 223 -37 27 -68 55 -68 62 0 9 62 29 188 60
252 63 441 121 537 166 99 46 150 100 210 226 24 49 44 87 44 84 4 -46 34
-186 42 -196 14 -16 34 -6 119 62 77 62 105 112 115 208 l7 67 52 0 c28 0 71
-5 95 -11 50 -11 73 0 52 25 -14 17 -129 40 -169 34 l-28 -4 -12 155 c-7 86
-15 170 -18 186 -6 27 -5 28 9 15 9 -8 52 -60 98 -115z m-2178 -130 c-3 -9 -8
-14 -10 -11 -3 3 -2 9 2 15 9 16 15 13 8 -4z m-523 -132 c14 -9 39 -29 55 -44
28 -26 33 -27 70 -18 22 6 59 14 83 18 42 8 42 8 42 -23 0 -17 -13 -59 -30
-93 l-29 -63 25 -29 c27 -32 32 -86 11 -114 -11 -16 -16 -16 -66 -1 l-54 16
-60 -61 c-33 -34 -66 -61 -73 -61 -21 0 -44 67 -44 126 0 49 -2 54 -22 54 -31
1 -126 62 -120 78 5 17 83 69 115 78 25 6 27 10 27 64 0 32 3 65 6 74 8 21 33
20 64 -1z m-847 -1020 c-4 -116 -1 -169 21 -328 30 -216 50 -330 73 -428 8
-37 13 -71 10 -74 -8 -8 -126 60 -185 107 -97 76 -178 220 -202 360 -22 133
35 318 122 395 39 34 143 101 160 104 4 1 4 -61 1 -136z m1925 104 c31 -46 29
-85 -5 -98 -23 -9 -31 -6 -63 26 -34 33 -60 45 -60 27 0 -5 10 -14 23 -19 13
-6 34 -31 47 -56 23 -43 23 -46 7 -71 -21 -31 -52 -33 -120 -10 -56 19 -61 41
-23 97 39 57 131 136 161 137 6 0 20 -15 33 -33z m-738 -478 c19 -545 79 -807
267 -1159 31 -58 49 -99 40 -91 -9 7 -17 21 -17 30 0 12 -2 13 -8 3 -7 -10
-12 -8 -25 6 -25 28 -173 322 -180 357 -3 17 -17 71 -32 120 -14 50 -31 117
-36 150 -5 33 -16 85 -23 115 -38 150 -58 494 -37 640 11 72 26 109 38 96 2
-2 7 -122 13 -267z m728 7 c9 -10 34 -27 54 -37 l37 -19 48 39 c27 21 60 59
73 85 16 28 32 46 43 46 20 0 68 -23 109 -51 l26 -19 -16 -50 c-9 -28 -39 -80
-66 -118 -65 -86 -104 -106 -208 -106 -42 0 -72 -4 -65 -8 22 -15 -88 4 -129
22 -22 10 -53 30 -68 46 -30 32 -66 95 -66 117 0 8 37 50 82 95 l82 80 23 -51
c14 -29 32 -60 41 -71z m3297 -261 c14 -13 25 -29 25 -35 0 -23 -36 -78 -109
-170 -42 -52 -98 -125 -123 -161 l-47 -66 -123 -6 c-67 -3 -126 -3 -131 0 -4
2 11 28 35 56 24 29 64 79 88 111 115 152 280 296 338 296 13 0 34 -11 47 -25z
m-690 -78 c-9 -50 -62 -222 -80 -257 -8 -14 -32 -45 -55 -70 -64 -69 -118
-158 -140 -230 -11 -36 -25 -80 -31 -99 -13 -40 -41 -67 -129 -125 -82 -53
-158 -89 -172 -80 -7 4 -8 3 -4 -4 4 -7 5 -12 3 -12 -3 0 -21 -7 -40 -15 -34
-14 -36 -14 -34 5 1 11 5 20 9 20 4 0 30 20 58 45 28 25 54 45 58 45 18 0 263
250 295 300 19 30 56 89 83 130 48 74 61 102 109 252 14 42 32 89 40 105 8 15
15 37 15 48 1 19 1 19 11 2 6 -11 8 -36 4 -60z m73 -301 c15 -8 49 -37 75 -65
26 -27 47 -46 47 -42 0 14 153 22 211 11 130 -24 238 -110 273 -217 22 -68 39
-227 31 -289 -8 -67 -55 -163 -93 -191 -101 -74 -230 -157 -275 -174 -115 -46
-287 6 -385 117 -87 97 -189 256 -211 330 -26 82 -26 118 -1 219 26 101 67
169 152 251 60 58 70 64 108 64 22 0 53 -6 68 -14z m-754 -186 c-13 -69 -27
-132 -30 -140 -9 -22 -21 13 -29 86 -4 32 -9 67 -12 77 -3 13 10 32 43 62 26
25 49 43 50 42 1 -1 -9 -58 -22 -127z m-2392 -64 c218 -86 499 -159 691 -181
81 -9 76 -26 -35 -110 -95 -72 -178 -142 -300 -254 l-70 -64 -24 29 c-40 48
-190 276 -227 345 -20 35 -52 102 -72 149 -20 47 -40 93 -45 103 -6 9 -9 17
-8 17 2 0 42 -15 90 -34z m2122 -38 c37 -176 102 -398 117 -398 5 0 9 -5 9
-11 0 -6 32 -82 70 -168 72 -161 80 -190 56 -210 -11 -10 -29 3 -92 66 -73 73
-277 242 -369 306 -60 42 -313 186 -381 217 -57 25 -62 38 -17 45 21 4 61 13
88 20 28 7 94 23 148 35 104 23 314 93 331 110 17 17 35 11 40 -12z m656 -175
c0 -16 6 -48 14 -73 l13 -45 -59 -68 c-83 -97 -111 -142 -103 -166 4 -12 2
-21 -4 -21 -6 0 -11 -6 -11 -13 0 -14 -77 -94 -83 -86 -18 22 -124 296 -116
301 2 2 56 29 119 61 63 31 138 75 165 96 28 22 53 40 58 40 4 1 7 -11 7 -26z
m-1913 -92 c69 -34 159 -51 284 -51 144 0 199 15 273 75 44 36 59 44 73 36 10
-5 32 -15 50 -21 59 -22 74 -48 80 -146 l6 -89 -94 -48 c-137 -70 -176 -78
-389 -84 l-185 -5 -109 72 c-60 40 -140 103 -178 139 l-70 66 78 61 79 60 30
-22 c17 -12 49 -31 72 -43z m-932 -227 c33 -23 86 -54 118 -69 31 -16 55 -30
52 -33 -2 -2 -12 -1 -22 3 -22 10 -41 8 -70 -7 -28 -14 -28 -22 -2 -65 16 -26
24 -31 30 -22 6 10 8 7 6 -9 0 -12 -2 -22 -4 -22 -1 0 -31 37 -66 83 -68 87
-141 207 -116 192 7 -5 41 -28 74 -51z m278 -121 c-7 -2 -19 -2 -25 0 -7 3 -2
5 12 5 14 0 19 -2 13 -5z m-26 -75 c-3 -8 -6 -5 -6 6 -1 11 2 17 5 13 3 -3 4
-12 1 -19z m-27 -43 c-7 -9 -15 -13 -17 -11 -7 7 7 26 19 26 6 0 6 -6 -2 -15z
m-555 -105 c3 -6 -1 -7 -9 -4 -18 7 -21 14 -7 14 6 0 13 -4 16 -10z"/>
<path d="M1465 4090 c-3 -5 -1 -10 4 -10 6 0 11 5 11 10 0 6 -2 10 -4 10 -3 0
-8 -4 -11 -10z"/>
<path d="M1571 4043 c3 -19 -2 -27 -10 -15 -6 10 -13 3 -27 -26 -27 -56 -39
-62 -120 -52 -111 15 -191 13 -198 -5 -3 -8 -2 -15 3 -15 4 0 16 -15 26 -34
11 -19 23 -33 27 -30 4 3 8 0 8 -7 0 -16 50 -91 67 -102 24 -15 13 -65 -28
-137 -33 -59 -40 -79 -36 -111 4 -35 2 -39 -14 -34 -11 4 -19 2 -19 -4 0 -13
29 -14 48 -3 7 5 10 16 6 25 -8 22 19 23 36 2 8 -10 17 -12 24 -6 6 5 28 12
48 16 20 4 51 18 69 31 29 21 35 22 53 10 12 -7 35 -32 51 -56 38 -54 126
-140 137 -134 4 3 7 24 7 47 -2 40 -2 41 -8 10 -5 -26 -9 -30 -21 -23 -10 6
-11 10 -2 10 6 0 12 11 12 25 0 41 28 31 33 -12 2 -21 4 18 4 87 0 69 -2 115
-4 103 -6 -31 -20 -29 -20 2 0 14 3 25 8 25 5 0 9 7 9 15 0 8 8 15 19 15 10 0
24 7 31 15 7 8 27 15 44 15 21 0 27 3 18 9 -10 6 -7 10 12 13 14 3 23 1 20 -3
-8 -13 10 -11 24 3 7 7 12 9 12 5 0 -4 11 2 24 14 15 13 22 28 19 39 -6 23
-50 53 -64 45 -5 -4 -15 -2 -22 3 -18 14 -66 23 -119 22 l-48 -1 0 43 c0 81
-24 122 -28 51 -3 -44 -5 -46 -37 -48 -22 -1 -25 4 -25 33 0 19 4 31 10 27 6
-3 10 -2 10 4 0 5 -6 12 -12 14 -10 4 -10 8 1 16 12 8 10 11 -12 16 -19 5 -26
13 -24 27 1 12 -4 23 -11 25 -7 3 -12 1 -11 -4z m191 -301 c3 -12 -3 -22 -18
-29 -23 -11 -24 -10 -24 28 0 36 2 39 19 30 10 -6 21 -19 23 -29z m-62 -12 c0
-5 -4 -10 -10 -10 -5 0 -10 5 -10 10 0 6 5 10 10 10 6 0 10 -4 10 -10z m36
-221 l1 -54 -4 50 c-2 27 -10 53 -16 58 -8 6 -7 7 3 4 11 -2 15 -19 16 -58z"/>
<path d="M1702 4020 c0 -19 2 -27 5 -17 2 9 2 25 0 35 -3 9 -5 1 -5 -18z"/>
<path d="M1170 4025 c-11 -13 -10 -14 4 -9 9 3 16 10 16 15 0 13 -6 11 -20 -6z"/>
<path d="M1130 3896 c0 -9 5 -16 10 -16 6 0 10 4 10 9 0 6 -4 13 -10 16 -5 3
-10 -1 -10 -9z"/>
<path d="M1960 3882 c0 -5 7 -15 15 -22 8 -7 15 -9 15 -6 0 4 -7 14 -15 22 -8
9 -15 11 -15 6z"/>
<path d="M3622 2850 c0 -19 2 -27 5 -17 2 9 2 25 0 35 -3 9 -5 1 -5 -18z"/>
<path d="M3630 2790 c0 -14 15 -19 29 -11 9 6 7 10 -8 14 -12 3 -21 1 -21 -3z"/>
<path d="M4370 2608 c-14 -6 -88 -12 -165 -12 -132 -1 -143 -3 -197 -29 -79
-39 -190 -160 -256 -280 -29 -51 -52 -96 -52 -99 0 -3 12 -3 26 0 26 5 27 4
18 -34 -5 -21 -9 -88 -8 -149 1 -170 33 -254 122 -322 39 -29 51 -33 105 -33
139 1 245 79 298 220 34 90 41 149 29 244 -17 140 -65 225 -160 286 -28 18
-50 34 -50 37 0 3 33 3 74 1 91 -6 136 -30 225 -122 108 -113 135 -80 77 92
-42 121 -42 123 -31 175 6 32 5 37 -11 36 -11 0 -30 -5 -44 -11z m-396 -299
c25 -68 12 -83 -45 -52 l-40 22 20 -35 c25 -42 27 -77 5 -98 -19 -19 -15 -19
-64 0 -62 25 -56 52 40 162 25 29 50 52 56 52 5 0 18 -23 28 -51z m12 -418
c15 -12 33 -21 40 -21 24 0 92 70 104 106 6 19 16 34 21 34 6 0 30 -12 55 -26
53 -31 56 -51 17 -130 -34 -70 -85 -121 -152 -152 -137 -63 -228 -27 -280 112
l-20 55 66 71 66 70 28 -49 c16 -27 40 -58 55 -70z"/>
<path d="M4299 1684 c-15 -18 0 -38 27 -32 25 5 28 25 6 37 -15 8 -23 7 -33
-5z"/>
<path d="M3286 1299 c-109 -26 -148 -75 -147 -186 1 -148 101 -241 227 -213
61 14 101 39 152 94 97 105 115 217 47 290 -23 25 -28 26 -132 25 -59 -1 -125
-5 -147 -10z m130 -81 c60 -36 114 -105 114 -146 0 -54 -123 -132 -209 -132
-87 0 -136 59 -147 177 -7 80 6 105 71 128 55 21 106 13 171 -27z"/>
<path d="M1591 1914 c0 -11 3 -14 6 -6 3 7 2 16 -1 19 -3 4 -6 -2 -5 -13z"/>
<path d="M1895 610 c3 -5 8 -10 11 -10 2 0 4 5 4 10 0 6 -5 10 -11 10 -5 0 -7
-4 -4 -10z"/>
<path d="M5120 908 c-19 -16 -26 -26 -15 -20 18 9 64 53 54 52 -2 -1 -20 -15
-39 -32z"/>
<path d="M6026 5921 c-17 -19 -17 -19 11 -14 15 2 40 5 55 6 20 2 24 5 16 15
-12 14 -48 16 -48 2 0 -5 -5 -10 -11 -10 -5 0 -7 5 -4 10 10 17 -1 11 -19 -9z"/>
<path d="M5971 5862 c-16 -22 -17 -29 -5 -29 7 0 12 3 9 5 -3 3 2 16 10 29 22
33 10 29 -14 -5z"/>
<path d="M5940 5790 c-8 -5 -12 -12 -9 -15 4 -3 12 1 19 10 14 17 11 19 -10 5z"/>
<path d="M5910 5775 c-10 -53 -10 -60 1 -42 6 10 8 25 6 35 -3 9 -6 13 -7 7z"/>
<path d="M6230 5746 c0 -2 8 -10 18 -17 15 -13 16 -12 3 4 -13 16 -21 21 -21
13z"/>
<path d="M5876 5705 c4 -8 10 -12 15 -9 11 6 2 24 -11 24 -5 0 -7 -7 -4 -15z"/>
<path d="M6271 5684 c0 -11 3 -14 6 -6 3 7 2 16 -1 19 -3 4 -6 -2 -5 -13z"/>
<path d="M5846 5668 c3 -4 1 -8 -4 -8 -13 0 -35 -56 -29 -72 3 -9 7 -6 13 7 4
11 18 34 32 52 22 30 23 32 3 30 -11 0 -17 -5 -15 -9z"/>
<path d="M6286 5647 c3 -10 9 -15 12 -12 3 3 0 11 -7 18 -10 9 -11 8 -5 -6z"/>
<path d="M6333 5590 c3 -11 1 -23 -4 -26 -5 -3 -9 5 -10 18 0 13 -3 17 -6 10
-6 -15 16 -72 28 -72 14 0 20 37 10 64 -12 30 -26 35 -18 6z m13 -47 c-10 -10
-19 5 -10 18 6 11 8 11 12 0 2 -7 1 -15 -2 -18z"/>
<path d="M5846 5548 c3 -10 10 -18 15 -18 5 0 9 -5 9 -11 0 -5 -4 -7 -10 -4
-17 11 -11 -3 13 -27 12 -13 21 -31 19 -40 -2 -13 1 -16 12 -12 12 4 15 2 10
-9 -5 -13 20 -77 30 -77 3 0 11 -3 20 -6 13 -5 14 -2 5 25 -6 17 -15 29 -19
26 -5 -3 -11 -1 -15 5 -3 5 -1 10 6 10 9 0 8 5 -2 18 -8 9 -21 29 -28 44 -18
34 -73 99 -65 76z"/>
<path d="M6342 5492 c17 -7 17 -9 -2 -39 -13 -22 -15 -33 -7 -36 20 -7 47 12
47 34 0 12 -4 17 -11 13 -8 -4 -9 0 -4 15 5 17 2 21 -17 20 -19 0 -20 -2 -6
-7z m17 -63 c-16 -10 -23 -4 -14 10 3 6 11 8 17 5 6 -4 5 -9 -3 -15z"/>
<path d="M6238 5423 c12 -2 32 -2 45 0 12 2 2 4 -23 4 -25 0 -35 -2 -22 -4z"/>
<path d="M6035 5377 c-16 -13 -15 -14 14 -9 17 2 34 8 37 13 8 14 -30 10 -51
-4z"/>
<path d="M6013 4968 c-13 -16 -36 -98 -30 -105 3 -2 8 10 12 28 5 23 10 28 16
18 6 -10 9 -6 9 14 0 40 24 44 195 35 211 -11 197 -4 194 -91 -1 -40 -5 -76
-9 -82 -4 -5 -13 -34 -20 -64 -15 -65 -48 -147 -72 -181 l-18 -24 -47 24 c-78
40 -105 51 -98 40 3 -5 13 -10 21 -10 8 0 14 -4 14 -10 0 -5 6 -10 14 -10 7 0
25 -11 40 -25 15 -14 23 -25 17 -25 -5 0 -17 7 -25 16 -9 8 -16 12 -16 7 0 -4
-5 -1 -10 7 -6 10 -10 11 -10 3 0 -16 52 -43 83 -43 69 0 146 185 150 359 2
93 1 96 -23 107 -14 7 -102 15 -201 19 -140 5 -177 4 -186 -7z m384 -250 c-3
-8 -6 -5 -6 6 -1 11 2 17 5 13 3 -3 4 -12 1 -19z"/>
<path d="M5996 4850 c-5 -21 -10 -29 -13 -21 -3 8 -12 -9 -20 -39 -14 -57 -12
-70 11 -51 16 13 40 113 33 134 -2 6 -7 -4 -11 -23z"/>
<path d="M4780 4704 c0 -16 -14 -49 -31 -74 -38 -57 -89 -155 -89 -173 0 -7
15 -39 34 -70 20 -33 32 -64 29 -76 -6 -24 17 -68 57 -106 l32 -30 21 26 c32
39 60 50 121 47 67 -3 89 14 148 115 22 37 53 83 69 102 l30 34 -28 -1 c-15 0
-40 5 -55 11 -16 6 -28 8 -28 6 0 -3 14 -11 31 -18 l31 -12 -66 -101 c-67
-102 -93 -124 -144 -124 -22 0 -24 2 -12 11 11 7 7 9 -16 6 -23 -4 -35 0 -45
14 -7 10 -19 19 -26 19 -17 0 -11 39 8 51 8 5 11 9 6 9 -4 0 -15 -5 -25 -11
-28 -18 -113 23 -136 65 -17 33 -17 34 5 77 12 24 36 67 54 95 18 28 36 60 39
72 8 24 21 28 32 11 10 -16 125 -99 137 -99 6 0 -10 14 -37 30 -26 17 -69 51
-97 77 l-49 46 0 -29z m-20 -394 c0 -5 -7 -10 -15 -10 -8 0 -15 5 -15 10 0 6
7 10 15 10 8 0 15 -4 15 -10z m10 -45 c8 -14 22 -25 34 -25 15 0 17 -3 8 -9
-11 -6 -10 -10 4 -15 13 -5 14 -10 6 -18 -11 -11 -15 -8 -69 61 -15 19 -16 31
-5 31 5 0 15 -11 22 -25z"/>
<path d="M5956 4705 c4 -8 8 -15 10 -15 2 0 4 7 4 15 0 8 -4 15 -10 15 -5 0
-7 -7 -4 -15z"/>
<path d="M5933 4666 c2 -5 25 -23 51 -40 38 -23 50 -26 56 -15 11 16 -6 39
-29 39 -14 -1 -14 -2 2 -11 9 -5 17 -15 17 -20 0 -6 -13 -2 -30 7 -16 10 -25
21 -19 24 6 5 5 10 -3 17 -17 13 -50 13 -45 -1z m37 -6 c0 -5 -2 -10 -4 -10
-3 0 -8 5 -11 10 -3 6 -1 10 4 10 6 0 11 -4 11 -10z"/>
<path d="M835 4630 c-3 -6 1 -7 9 -4 18 7 21 14 7 14 -6 0 -13 -4 -16 -10z"/>
<path d="M6094 4606 c11 -9 24 -16 30 -16 12 0 7 5 -24 19 -24 11 -24 11 -6
-3z"/>
<path d="M799 4593 c-13 -16 -12 -17 4 -4 16 13 21 21 13 21 -2 0 -10 -8 -17
-17z"/>
<path d="M6065 4590 c3 -5 8 -10 11 -10 2 0 4 5 4 10 0 6 -5 10 -11 10 -5 0
-7 -4 -4 -10z"/>
<path d="M6110 4566 c0 -2 9 -6 20 -9 11 -3 18 -1 14 4 -5 9 -34 13 -34 5z"/>
<path d="M5050 4536 c0 -2 7 -7 16 -10 8 -3 12 -2 9 4 -6 10 -25 14 -25 6z"/>
<path d="M4933 4512 c-12 -7 -36 -62 -28 -62 2 0 12 14 20 31 11 19 22 29 31
25 8 -3 14 -1 14 4 0 12 -20 13 -37 2z"/>
</g>
</svg>
